
<svg version="1.1" id="Layer_1" xmlns="http://www.w3.org/2000/svg" xmlns:xlink="http://www.w3.org/1999/xlink" x="0px" y="0px"
	 viewBox="0 0 512 512" style="enable-background:new 0 0 512 512;" xml:space="preserve">
<style type="text/css">
	.st0{display:none;fill:#C1E0EA;}
	.st1{fill:#FFFFFF;}
	.st2{fill:#E7ECF2;}
	.st3{fill:url(#SVGID_1_);}
	.st4{font-family:'OpenSans-Bold';}
	.st5{font-size:8.5596px;}
	.st6{fill:#FF5A76;}
	.st7{fill:none;stroke:#454B60;stroke-width:0.7691;stroke-miterlimit:10;}
	.st8{fill:none;stroke:#454B60;stroke-width:0.7691;stroke-linejoin:round;stroke-miterlimit:10;}
	.st9{fill:#CAD2DB;}
	.st10{fill:#5C8EFF;}
	.st11{fill-rule:evenodd;clip-rule:evenodd;fill:none;stroke:#DCE0ED;stroke-width:0.2307;stroke-miterlimit:10;}
	.st12{fill:#454B60;}
	.st13{fill:#3C3C3B;}
	.st14{font-family:'Metropolis-Medium';}
	.st15{font-size:7.5803px;}
	.st16{fill:#36A9C2;}
	.st17{fill:#7F7F7F;}
	.st18{fill:#B2B2B2;}
	.st19{font-size:5.4145px;}
</style>
<rect x="0" class="st0" width="512" height="512"/>
<g>
	<rect x="125.01" y="53.57" class="st1" width="261.97" height="404.86"/>
	<g>
		<rect x="134.47" y="113.74" class="st2" width="243.06" height="242.72"/>
	</g>
	<g>
		<path class="st2" d="M156.95,85.17c0,6.01-4.87,10.87-10.87,10.87c-6,0-10.87-4.87-10.87-10.87c0-6,4.87-10.87,10.87-10.87
			C152.08,74.3,156.95,79.17,156.95,85.17z"/>
	</g>
	<g>
		<g>
			<linearGradient id="SVGID_1_" gradientUnits="userSpaceOnUse" x1="131.446" y1="98.725" x2="177.2667" y2="56.2662">
				<stop  offset="1.104800e-03" style="stop-color:#FAE089"/>
				<stop  offset="0.2094" style="stop-color:#FBBA45"/>
				<stop  offset="0.3765" style="stop-color:#F65274"/>
				<stop  offset="0.5238" style="stop-color:#D43691"/>
				<stop  offset="0.7394" style="stop-color:#8E39CD"/>
				<stop  offset="1" style="stop-color:#5B4FE8"/>
			</linearGradient>
			<path class="st3" d="M146.07,98.34c-7.26,0-13.16-5.91-13.16-13.17c0-7.26,5.91-13.17,13.16-13.17c7.26,0,13.17,5.91,13.17,13.17
				C159.24,92.43,153.33,98.34,146.07,98.34z M146.07,73.5c-6.43,0-11.67,5.24-11.67,11.67c0,6.44,5.24,11.67,11.67,11.67
				c6.44,0,11.67-5.24,11.67-11.67C157.75,78.73,152.51,73.5,146.07,73.5z"/>
		</g>
	</g>
	<text transform="matrix(1 0 0 1 164.5889 88.0942)" class="st4 st5">@username</text>
	<g>
		<path class="st6" d="M150.17,366.89c-0.74-0.48-1.55-0.71-2.35-0.71c-1.4,0-2.77,0.7-3.68,1.97c-0.91-1.27-2.28-1.97-3.68-1.97
			c-0.8,0-1.61,0.23-2.35,0.71c-2.26,1.46-3.03,4.69-1.73,7.22c1.06,2.06,5.54,5.64,7.17,6.89c0.18,0.13,0.38,0.2,0.59,0.2
			c0.21,0,0.41-0.07,0.59-0.2c1.62-1.25,6.1-4.83,7.16-6.89C153.2,371.58,152.43,368.35,150.17,366.89z"/>
		<path class="st7" d="M179.36,377.25c-0.04-0.15-0.02-0.32,0.05-0.47c0.75-1.51,0.93-3.2,0.51-4.89c-0.6-2.43-2.46-4.33-4.85-4.97
			c-0.64-0.17-1.28-0.25-1.92-0.25c-2.17,0-4.19,0.98-5.52,2.71c-1.34,1.73-1.79,3.98-1.22,6.16c0.55,2.14,2.86,4.4,5.03,4.93
			c1.72,0.42,3.51,0.19,5.03-0.64c0.16-0.09,0.33-0.11,0.49-0.06l3.01,0.8c0.05,0,0.12-0.04,0.17-0.09
			c0.04-0.06,0.06-0.13,0.04-0.21L179.36,377.25z"/>
		<path class="st8" d="M373.52,367.53h-10.87c-0.2,0-0.38,0.17-0.38,0.38v11.77c0,0.15,0.09,0.28,0.22,0.35
			c0.14,0.06,0.3,0.04,0.41-0.06l5.19-4.54l5.18,4.54c0.11,0.09,0.27,0.12,0.41,0.06c0.14-0.06,0.22-0.2,0.22-0.35v-11.77
			C373.91,367.7,373.74,367.53,373.52,367.53z"/>
		<g>
			<path class="st9" d="M240.93,374.33c0,0.99-0.8,1.78-1.78,1.78c-0.98,0-1.78-0.8-1.78-1.78c0-0.98,0.8-1.78,1.78-1.78
				C240.13,372.55,240.93,373.35,240.93,374.33z"/>
			<path class="st9" d="M248.93,374.33c0,0.99-0.8,1.78-1.78,1.78c-0.98,0-1.78-0.8-1.78-1.78c0-0.98,0.8-1.78,1.78-1.78
				C248.13,372.55,248.93,373.35,248.93,374.33z"/>
			<path class="st10" d="M256.92,374.33c0,0.99-0.8,1.78-1.78,1.78c-0.98,0-1.78-0.8-1.78-1.78c0-0.98,0.8-1.78,1.78-1.78
				C256.13,372.55,256.92,373.35,256.92,374.33z"/>
			<path class="st9" d="M264.92,374.33c0,0.99-0.8,1.78-1.78,1.78c-0.99,0-1.78-0.8-1.78-1.78c0-0.98,0.79-1.78,1.78-1.78
				C264.12,372.55,264.92,373.35,264.92,374.33z"/>
			<path class="st9" d="M272.92,374.33c0,0.99-0.8,1.78-1.78,1.78c-0.99,0-1.78-0.8-1.78-1.78c0-0.98,0.79-1.78,1.78-1.78
				C272.12,372.55,272.92,373.35,272.92,374.33z"/>
		</g>
		<g>
			<path class="st7" d="M208.97,367.08h-14.39c-0.15,0-0.28,0.09-0.33,0.23c-0.05,0.14-0.01,0.3,0.1,0.39l5.67,4.82l0.01,0.05
				l1.4,7.65c0.03,0.15,0.14,0.26,0.29,0.28c0.14,0.03,0.3-0.04,0.36-0.17l7.2-12.72c0.06-0.11,0.06-0.24,0-0.35
				C209.21,367.15,209.09,367.08,208.97,367.08z"/>
			<line class="st7" x1="209.27" y1="367.26" x2="200.02" y2="372.57"/>
		</g>
	</g>
	<line class="st11" x1="125.01" y1="53.57" x2="386.99" y2="53.57"/>
	<g>
		<path class="st12" d="M370.91,80.87c0,0.68-0.55,1.24-1.24,1.24c-0.68,0-1.24-0.56-1.24-1.24c0-0.68,0.56-1.24,1.24-1.24
			C370.36,79.64,370.91,80.19,370.91,80.87z"/>
		<path class="st12" d="M370.91,85.17c0,0.68-0.55,1.24-1.24,1.24c-0.68,0-1.24-0.55-1.24-1.24c0-0.68,0.56-1.24,1.24-1.24
			C370.36,83.93,370.91,84.49,370.91,85.17z"/>
		<path class="st12" d="M370.91,89.47c0,0.68-0.55,1.24-1.24,1.24c-0.68,0-1.24-0.55-1.24-1.24c0-0.68,0.56-1.24,1.24-1.24
			C370.36,88.23,370.91,88.78,370.91,89.47z"/>
	</g>
	<g id="XMLID_69_">
		<text transform="matrix(1 0 0 1 135.0176 392.708)" class="st13 st14 st15">999 likes</text>
	</g>
	<g id="XMLID_77_">
		<text transform="matrix(1 0 0 1 134.8687 406.6064)" class="st13 st14 st15">your title here</text>
	</g>
	<g id="XMLID_78_">
		<text transform="matrix(1 0 0 1 208.1743 406.6064)" class="st16 st14 st15">#hashtag</text>
	</g>
	<g id="XMLID_1_">
		<text transform="matrix(1 0 0 1 134.7905 421.0361)" class="st17 st14 st15">View all 3 comments</text>
	</g>
	<g id="XMLID_2_">
		<text transform="matrix(1 0 0 1 134.7905 429.123)" class="st18 st14 st19">5 hours ago</text>
	</g>
</g>
</svg>
